<svg id="Layer_1" data-name="Layer 1" xmlns="http://www.w3.org/2000/svg" viewBox="0 0 60 60"><defs><style>.cls-1{fill:#1da1f2}.cls-2{fill:#fff}</style></defs><title>tw</title><circle class="cls-1" cx="30" cy="30" r="29.84"/><path class="cls-2" d="M24.07 43c12.07 0 18.67-10 18.67-18.67v-.85a13.35 13.35 0 0 0 3.26-3.4 13.1 13.1 0 0 1-3.77 1 6.59 6.59 0 0 0 2.89-3.63 13.15 13.15 0 0 1-4.17 1.59 6.57 6.57 0 0 0-11.18 6 18.63 18.63 0 0 1-13.54-6.84 6.57 6.57 0 0 0 2 8.76 6.51 6.51 0 0 1-3-.82v.08a6.57 6.57 0 0 0 5.27 6.43 6.55 6.55 0 0 1-3 .11 6.57 6.57 0 0 0 6.13 4.56 13.17 13.17 0 0 1-8.15 2.81A13.36 13.36 0 0 1 14 40a18.58 18.58 0 0 0 10.07 3"/></svg>